<svg width="268" height="61" viewBox="0 0 268 61" fill="none" xmlns="http://www.w3.org/2000/svg">
<path d="M220.172 11.2739C217.407 11.2739 216.24 12.2088 215.681 14.6366L208.999 53.5109H223.449L231.234 11.2739H220.172Z" fill="white"/>
<path d="M51.4066 11.2441H38.7947C36.8446 11.2441 35.7576 11.8322 34.4629 12.9632L20.0447 26.1877L23.5294 11.2441H12.1004C9.38299 11.2441 8.26406 12.164 7.7046 14.5314L0 53.5113H14.3222L18.2704 35.1598L31.6176 53.5113H49.4725L31.6975 29.6257L51.4066 11.2441Z" fill="white"/>
<path d="M247.554 43.6189L253.453 11.2739H242.391C239.658 11.2739 238.507 12.1636 237.915 14.5009L231.218 53.5109H266.528L267.871 43.6038H247.538L247.554 43.6189Z" fill="white"/>
<path d="M184.623 24.4835L190.377 53.5262H205.69L196.275 11.2892H182.145C179.923 11.2892 178.996 11.8924 178.005 13.3852L159.511 47.9167L146.723 37.0295C152.509 35.4914 158.951 31.2994 160.757 24.2573C163.97 11.7567 152.781 11.244 149.057 11.244H128.516C125.863 11.244 125.383 11.7868 124.824 14.0638L120.876 31.5859C110.805 25.3883 87.9474 12.8424 71.8509 12.6463C67.8068 12.586 64.8496 13.1741 61.9884 14.8328C61.5568 15.0892 61.4449 15.0439 61.3809 15.0289L61.6047 14.5916C63.3471 12.6011 66.8797 9.38922 72.826 7.6551C72.826 7.6551 82.3208 4.5337 95.0766 11.817C102.493 16.0693 107.481 19.628 112.324 23.3978C108.648 9.04239 94.4212 -1.21149 78.1808 0.115484C63.443 1.29166 51.8541 11.5757 49.1047 24.5589C56.9692 17.909 72.0427 15.5566 95.0926 22.9907C100.272 24.6645 105.051 26.474 109.415 28.3287C113.395 30.0025 117.439 32.0081 121.659 34.3001C130.355 39.0199 140.073 45.5945 147.938 53.5111H169.517L184.623 24.4685V24.4835ZM135.598 32.2946C136.045 30.2589 138.459 19.236 138.779 17.7884H144.101C144.101 17.7884 149.44 17.4868 147.522 24.2724C147.522 24.2724 145.412 32.2946 135.598 32.2946Z" fill="white"/>
<path d="M133.36 42.8051C132.209 47.54 130.978 53.5114 130.978 53.5114H115.936L119.357 38.3115C116 37.2711 113.651 36.6528 112.58 36.3965C109.83 49.3495 98.4652 59.709 83.7593 60.8852C74.2005 61.6542 65.2811 58.5177 58.7913 52.8027L58.7593 52.7725C58.7593 52.7725 52.5094 47.4043 52.9889 39.6536C53.4684 31.6917 60.9013 28.4497 60.9013 28.4497C69.549 24.0767 88.6826 23.6093 115.729 34.5417C115.729 34.5417 124.808 37.9044 133.36 42.7901V42.8051Z" fill="white"/>
</svg>
