<svg width="190" height="81" viewBox="0 0 190 81" fill="none" xmlns="http://www.w3.org/2000/svg">
<path d="M153.559 26.5166C151.681 26.5166 150.889 27.1899 150.509 28.9384L145.972 56.936H155.784L161.07 26.5166H153.559Z" fill="#0066B3"/>
<path d="M38.9584 26.495H30.3943C29.07 26.495 28.3319 26.9185 27.4527 27.733L17.662 37.2574L20.0283 26.495H12.2673C10.4221 26.495 9.66228 27.1574 9.28238 28.8625L4.05054 56.9361H13.7761L16.4572 43.7193L25.5206 56.9361H37.645L25.5749 39.7336L38.9584 26.495Z" fill="#0066B3"/>
<path d="M172.153 49.8117L176.159 26.5166H168.647C166.791 26.5166 166.01 27.1573 165.608 28.8407L161.06 56.936H185.038L185.949 49.8009H172.143L172.153 49.8117Z" fill="#0066B3"/>
<path d="M129.419 36.0302L133.326 56.947H143.725L137.331 26.5275H127.736C126.227 26.5275 125.598 26.9619 124.925 28.0371L112.366 52.907L103.683 45.0659C107.612 43.9582 111.986 40.939 113.213 35.8673C115.395 26.8642 107.797 26.4949 105.267 26.4949H91.3195C89.5177 26.4949 89.192 26.8859 88.8121 28.5258L86.1311 41.1454C79.2928 36.6818 63.7709 27.6461 52.8405 27.5049C50.0943 27.4615 48.0863 27.8851 46.1433 29.0797C45.8503 29.2643 45.7743 29.2317 45.7309 29.2209L45.8828 28.9059C47.066 27.4724 49.4648 25.1591 53.5026 23.9102C53.5026 23.9102 59.9502 21.6622 68.612 26.9076C73.6485 29.9702 77.0351 32.5332 80.324 35.2483C77.8274 24.9094 68.167 17.5244 57.1389 18.4801C47.1311 19.3272 39.2616 26.7339 37.3947 36.0845C42.735 31.2952 52.9708 29.601 68.6229 34.955C72.1397 36.1605 75.3852 37.4638 78.3484 38.7996C81.0512 40.005 83.7974 41.4495 86.663 43.1002C92.5678 46.4994 99.1673 51.2345 104.508 56.9361H119.161L129.419 36.0193V36.0302ZM96.128 41.6558C96.432 40.1897 98.071 32.2509 98.2881 31.2083H101.903C101.903 31.2083 105.528 30.9911 104.225 35.8782C104.225 35.8782 102.793 41.6558 96.128 41.6558Z" fill="url(#paint0_radial_1276_183)"/>
<path d="M94.6088 49.2253C93.8273 52.6354 92.9915 56.936 92.9915 56.936H82.7775L85.1004 45.9889C82.8209 45.2396 81.2253 44.7943 80.4981 44.6097C78.6311 53.9386 70.9136 61.3996 60.9275 62.2467C54.4366 62.8005 48.3798 60.5416 43.9729 56.4256L43.9512 56.4039C43.9512 56.4039 39.7071 52.5376 40.0327 46.9555C40.3583 41.2213 45.4057 38.8863 45.4057 38.8863C51.2779 35.7369 64.2707 35.4002 82.6364 43.2739C82.6364 43.2739 88.8017 45.6957 94.6088 49.2144V49.2253Z" fill="url(#paint1_radial_1276_183)"/>
<defs>
<radialGradient id="paint0_radial_1276_183" cx="0" cy="0" r="1" gradientUnits="userSpaceOnUse" gradientTransform="translate(56.4069 34.9998) scale(26.7028 26.717)">
<stop stop-color="#00AFDC"/>
<stop offset="0.2" stop-color="#00AFDC"/>
<stop offset="1" stop-color="#0066B3"/>
</radialGradient>
<radialGradient id="paint1_radial_1276_183" cx="0" cy="0" r="1" gradientUnits="userSpaceOnUse" gradientTransform="translate(55.5567 31.3589) scale(26.5873 26.6014)">
<stop stop-color="#00AFDC"/>
<stop offset="0.2" stop-color="#00AFDC"/>
<stop offset="1" stop-color="#0066B3"/>
</radialGradient>
</defs>
</svg>
